<svg xmlns="http://www.w3.org/2000/svg" viewBox="0 0 24 24" fill="none" stroke="#0ea5e9" stroke-width="2" stroke-linecap="round" stroke-linejoin="round" width="32" height="32">
  <path d="M10 2v1.5A1.5 1.5 0 0 1 8.5 5H6.5a1.5 1.5 0 0 0-1.43 1.95l.29 1.05A1.5 1.5 0 0 1 5 9.5v.24a1.5 1.5 0 0 0 .4 1.02l2.1 2.38a1.5 1.5 0 0 1 .4 1.02V16.5a1.5 1.5 0 0 0 1.5 1.5h2a1.5 1.5 0 0 0 1.5-1.5v-2.34a1.5 1.5 0 0 1 .4-1.02l2.1-2.38a1.5 1.5 0 0 0 .4-1.02V9.5a1.5 1.5 0 0 1-.36-1.5l.29-1.05A1.5 1.5 0 0 0 14.5 5H12.5a1.5 1.5 0 0 1-1.5-1.5V2"/>
  <path d="M8.5 5h4"/>
</svg>